<?xml version="1.0" standalone="no"?>
<!DOCTYPE svg PUBLIC "-//W3C//DTD SVG 20010904//EN"
 "http://www.w3.org/TR/2001/REC-SVG-20010904/DTD/svg10.dtd">
<svg version="1.0" xmlns="http://www.w3.org/2000/svg"
 width="1800.000000pt" height="1800.000000pt" viewBox="0 0 1800.000000 1800.000000"
 preserveAspectRatio="xMidYMid meet">
<metadata>
Created by potrace 1.14, written by Peter Selinger 2001-2017
</metadata>
<g transform="translate(0.000000,1800.000000) scale(0.100000,-0.100000)"
fill="#000000" stroke="none">
<path d="M0 9000 l0 -9000 9000 0 9000 0 0 9000 0 9000 -9000 0 -9000 0 0
-9000z m9060 2499 c361 -32 689 -141 951 -315 399 -266 619 -651 653 -1141 l5
-83 -574 0 -575 0 -5 28 c-23 110 -41 165 -68 216 -117 220 -372 327 -744 313
-365 -13 -584 -154 -625 -401 -19 -116 15 -235 91 -319 111 -123 304 -202 722
-297 557 -127 762 -187 977 -290 206 -99 326 -179 470 -314 208 -197 344 -464
382 -755 25 -188 8 -442 -41 -621 -128 -458 -487 -800 -1008 -959 -296 -90
-536 -122 -906 -122 -391 0 -664 39 -975 141 -186 61 -416 189 -563 314 -81
69 -201 204 -258 290 -93 141 -184 362 -220 536 -22 105 -49 321 -49 387 l0
43 574 0 c634 0 586 5 586 -64 0 -51 38 -182 72 -250 140 -279 452 -421 882
-403 179 8 292 33 415 93 153 75 239 175 277 326 19 73 14 141 -18 225 -30 82
-124 173 -243 235 -152 78 -307 124 -860 253 -181 42 -397 99 -478 126 -459
152 -779 389 -940 698 -60 116 -93 216 -118 363 -18 104 -21 147 -16 278 10
262 69 468 190 668 352 583 1120 885 2037 801z m-4880 -2039 l0 -1990 1025 0
1025 0 0 -485 0 -485 -1630 0 -1630 0 0 2475 0 2475 605 0 605 0 0 -1990z
m9521 1967 c515 -78 893 -287 1157 -637 125 -167 220 -372 277 -597 63 -253
62 -646 -4 -922 -43 -181 -122 -365 -220 -512 -57 -86 -186 -228 -281 -310
-196 -168 -466 -296 -758 -359 -216 -47 -284 -52 -819 -57 l-513 -5 0 -764 0
-764 -605 0 -605 0 0 2476 0 2475 1133 -4 c977 -3 1146 -6 1238 -20z"/>
<path d="M12540 9730 l0 -752 378 5 c401 5 431 8 575 60 325 118 491 436 436
833 -25 181 -112 338 -242 437 -76 58 -206 116 -311 139 -80 18 -136 21 -463
25 l-373 5 0 -752z"/>
</g>
</svg>
